<?xml version="1.0" standalone="no"?>
<!DOCTYPE svg PUBLIC "-//W3C//DTD SVG 20010904//EN"
 "http://www.w3.org/TR/2001/REC-SVG-20010904/DTD/svg10.dtd">
<svg version="1.0" xmlns="http://www.w3.org/2000/svg"
 width="1024.000000pt" height="1024.000000pt" viewBox="0 0 1024.000000 1024.000000"
 preserveAspectRatio="xMidYMid meet">

<g transform="translate(0.000000,1024.000000) scale(0.100000,-0.100000)"
fill="#000000" stroke="none">
<path d="M5808 8287 c-301 -268 -602 -664 -797 -1047 -68 -132 -158 -358 -192
-476 l-23 -81 -120 110 c-304 279 -612 457 -987 571 -434 131 -868 138 -1554
26 -165 -27 -203 -39 -225 -68 -42 -52 -30 -80 213 -503 403 -702 654 -1076
951 -1414 82 -93 86 -102 117 -199 48 -157 169 -374 242 -435 10 -7 17 -17 17
-22 0 -5 -427 -9 -985 -9 l-985 0 0 -80 0 -80 1080 0 1080 0 38 -24 c238 -150
522 -220 789 -195 230 21 396 83 575 214 l37 27 58 -35 c209 -126 436 -207
669 -237 126 -17 435 -8 534 14 186 43 349 106 502 192 l77 44 926 0 925 0 0
80 0 80 -812 0 -812 0 111 113 c151 151 206 221 206 257 0 58 -225 364 -359
490 -171 159 -376 279 -559 325 -55 14 -108 25 -117 25 -10 0 -18 2 -18 5 0 3
16 44 36 92 270 651 143 1464 -330 2123 -33 46 -82 111 -109 142 -67 82 -80
80 -199 -25z m170 -219 c264 -368 408 -746 443 -1160 32 -388 -76 -808 -260
-1013 -51 -57 -55 -64 -41 -80 9 -11 33 -15 89 -15 42 0 120 -7 174 -15 243
-36 428 -137 628 -342 90 -91 269 -307 269 -324 0 -21 -231 -238 -327 -309
-313 -228 -579 -320 -928 -320 -237 0 -456 51 -658 154 -173 88 -345 222 -434
339 -26 34 -95 114 -153 177 -58 64 -227 250 -376 415 -264 292 -370 409 -638
703 l-130 143 -27 -60 c-21 -46 -36 -64 -65 -79 l-37 -19 129 -144 c179 -201
508 -561 699 -767 88 -96 161 -177 163 -181 3 -10 -102 -38 -198 -52 -156 -24
-414 12 -585 80 -197 79 -342 192 -545 426 -134 154 -350 464 -545 780 -141
229 -448 766 -441 772 9 9 318 51 510 69 483 45 905 -33 1316 -242 225 -114
441 -275 625 -465 199 -206 352 -462 479 -802 37 -99 106 -328 106 -351 0 -27
44 -68 99 -93 367 -165 714 -235 1221 -246 l105 -2 -115 -57 c-245 -122 -487
-154 -761 -102 -141 26 -330 103 -435 175 l-41 28 -20 -22 c-11 -12 -34 -43
-52 -69 l-32 -47 43 -32 c53 -38 242 -130 324 -158 176 -58 429 -84 608 -62
286 36 562 166 774 365 70 66 70 93 3 173 -63 76 -193 199 -258 246 -114 83
-311 149 -450 151 -61 1 -76 -2 -94 -20 -32 -33 -30 -90 5 -120 15 -13 38 -24
50 -24 54 0 202 -32 259 -56 75 -32 180 -100 226 -147 l33 -35 -77 -7 c-154
-15 -496 14 -735 61 -132 26 -242 61 -404 128 -99 41 -99 41 -112 86 -8 25
-14 52 -14 61 0 11 37 35 113 72 61 30 122 58 134 62 24 7 27 18 68 247 66
373 177 1030 200 1178 14 91 28 179 32 195 l6 30 19 -44 c82 -193 123 -493 99
-731 -13 -123 -50 -304 -81 -396 -11 -32 -20 -66 -20 -77 0 -35 29 -57 75 -57
69 0 89 34 140 228 79 303 79 613 0 922 -66 258 -210 593 -261 606 -34 9 -57
-8 -140 -104 -355 -405 -574 -874 -574 -1230 0 -103 20 -193 61 -274 37 -73
95 -88 148 -39 39 36 39 52 1 133 -43 93 -55 168 -41 273 30 219 130 461 292
704 121 181 120 181 92 -7 -24 -155 -187 -1129 -220 -1309 l-16 -93 -95 -50
c-52 -28 -95 -50 -96 -48 -2 2 -17 44 -36 93 -74 202 -203 461 -303 608 -45
68 -45 65 9 252 115 391 344 801 638 1140 80 93 287 305 298 305 3 0 33 -37
66 -82z"/>
<path d="M2765 6983 c-35 -9 -65 -44 -65 -77 0 -39 116 -327 203 -506 81 -166
207 -376 307 -512 165 -225 543 -558 633 -558 45 0 97 57 97 106 0 22 -6 46
-13 55 -7 9 -59 53 -117 98 -344 268 -523 502 -754 990 -41 86 -77 167 -81
180 l-7 24 113 -7 c285 -17 513 -73 722 -177 186 -93 287 -169 498 -378 87
-84 163 -157 171 -162 29 -19 79 -10 109 20 34 35 39 91 11 132 -60 89 -297
318 -442 425 -249 185 -579 305 -942 344 -96 10 -405 12 -443 3z"/>
<path d="M7077 7420 c-150 -19 -378 -77 -392 -100 -9 -14 15 -122 30 -138 10
-11 30 -8 116 17 57 18 142 38 188 46 105 19 326 19 451 1 104 -16 538 -93
582 -104 l27 -7 -31 -50 c-41 -65 -142 -269 -208 -420 -62 -142 -89 -190 -147
-267 -64 -84 -148 -154 -238 -199 -184 -91 -393 -93 -671 -8 -56 18 -109 29
-116 27 -13 -6 -48 -99 -48 -130 0 -20 50 -40 198 -79 142 -37 352 -50 479
-29 269 43 488 212 623 479 17 35 66 141 107 235 75 173 184 389 229 455 13
20 24 49 24 66 0 57 -14 64 -160 85 -74 11 -218 35 -320 55 -102 19 -228 42
-280 50 -115 19 -350 27 -443 15z"/>
<path d="M7011 7079 c-62 -8 -164 -29 -245 -50 l-38 -10 4 -60 c6 -84 21 -97
95 -81 179 39 233 45 388 44 171 -1 290 -13 245 -25 -14 -4 -175 -43 -359 -87
-184 -44 -340 -85 -346 -90 -20 -17 -27 -111 -10 -137 21 -32 66 -30 195 7 58
17 209 57 335 91 127 33 238 63 248 66 16 4 18 1 12 -19 -18 -56 -67 -137
-101 -168 -102 -89 -216 -105 -512 -75 -202 22 -202 22 -210 -69 -5 -68 -1
-71 150 -92 173 -23 336 -29 410 -15 96 19 203 75 268 140 59 60 73 84 176
316 73 164 85 213 60 234 -18 15 -253 64 -383 80 -100 12 -287 12 -382 0z"/>
<path d="M1480 3905 c0 -5 51 -165 114 -355 63 -190 160 -486 216 -657 l101
-313 149 0 149 0 19 53 c10 28 72 200 138 380 86 239 121 324 127 310 4 -10
67 -180 141 -378 l133 -360 148 0 148 0 113 345 c62 190 159 488 216 663 l103
317 -135 0 -136 0 -128 -437 c-70 -241 -140 -478 -154 -528 -14 -49 -28 -93
-32 -97 -3 -4 -66 169 -140 385 -74 216 -157 457 -185 537 l-50 145 -49 0 -48
0 -93 -270 c-174 -509 -268 -780 -275 -787 -3 -5 -57 162 -118 370 -62 207
-134 447 -160 532 l-47 155 -133 0 c-78 0 -132 -4 -132 -10z"/>
<path d="M3910 3912 l-105 -3 3 -664 2 -665 120 0 120 0 0 668 c0 629 -1 668
-17 667 -10 0 -65 -1 -123 -3z"/>
<path d="M4420 3800 l0 -119 418 0 c229 0 421 -1 426 -1 4 0 -20 -30 -55 -67
-35 -38 -226 -243 -426 -457 l-363 -388 0 -94 0 -94 600 0 600 0 0 110 0 110
-427 2 -427 3 159 170 c88 93 278 295 423 448 l263 278 -3 107 -3 107 -592 2
-593 3 0 -120z"/>
<path d="M5950 3250 l0 -670 565 0 565 0 0 110 0 110 -440 0 -440 0 0 175 0
175 370 0 370 0 0 110 0 110 -370 0 -370 0 0 158 0 157 432 0 433 0 0 115 0
115 -557 2 -558 3 0 -670z"/>
<path d="M7420 3251 l0 -671 125 0 125 0 0 205 0 205 218 0 218 0 155 -205
154 -205 153 0 c83 0 152 2 152 5 0 3 -74 98 -165 211 -91 113 -163 209 -160
214 3 5 18 11 35 15 44 10 141 76 183 125 114 134 135 336 52 507 -42 84 -107
148 -198 193 -128 62 -141 63 -614 68 l-433 3 0 -670z m855 424 c122 -26 190
-96 202 -209 10 -94 -32 -177 -110 -219 -41 -21 -52 -22 -369 -25 l-328 -3 0
229 c0 126 3 232 7 235 3 4 124 7 267 7 191 0 280 -4 331 -15z"/>
<path d="M7309 2271 c-165 -34 -233 -220 -120 -332 38 -38 116 -69 176 -69 45
0 128 27 159 51 25 20 26 23 12 37 -14 14 -17 14 -33 0 -76 -64 -247 -50 -296
26 -43 65 -27 159 36 210 34 27 48 31 110 34 61 3 79 0 121 -22 37 -19 53 -22
63 -14 21 17 15 25 -39 52 -59 27 -134 38 -189 27z"/>
<path d="M8180 2273 c-85 -14 -140 -59 -140 -115 0 -68 65 -97 250 -113 91 -8
122 -25 118 -63 -2 -19 -13 -32 -38 -45 -51 -26 -208 -20 -267 11 -36 19 -42
20 -47 5 -17 -42 80 -78 209 -77 71 1 99 5 131 22 50 25 71 67 58 115 -13 45
-58 64 -189 77 -142 15 -175 29 -175 70 0 23 7 35 33 51 28 17 45 20 127 17
65 -3 106 -9 130 -21 33 -17 35 -17 48 0 11 15 8 19 -22 35 -53 27 -161 42
-226 31z"/>
<path d="M1860 2075 l0 -195 134 0 c187 0 245 23 287 115 49 106 -6 225 -120
264 -19 6 -94 11 -167 11 l-134 0 0 -195z m310 129 c104 -61 107 -204 6 -256
-32 -17 -65 -22 -153 -26 l-113 -5 0 158 0 157 113 -3 c90 -3 119 -8 147 -25z"/>
<path d="M2790 2264 c0 -3 41 -57 90 -121 l90 -115 0 -74 c0 -72 1 -74 25 -74
24 0 25 2 25 73 l0 73 95 116 c52 64 95 119 95 122 0 3 -11 6 -24 6 -19 0 -42
-23 -103 -99 -43 -55 -81 -100 -84 -100 -3 -1 -41 44 -83 99 -60 78 -82 100
-102 100 -13 0 -24 -3 -24 -6z"/>
<path d="M3700 2075 l0 -195 25 0 25 0 2 161 3 161 150 -161 c123 -132 155
-161 178 -161 l27 0 0 195 0 195 -25 0 -25 0 0 -165 0 -166 -152 166 c-127
139 -156 165 -180 165 l-28 0 0 -195z"/>
<path d="M4705 2081 c-52 -105 -95 -193 -95 -196 0 -3 10 -5 23 -5 18 0 29 11
47 50 l23 50 124 0 123 0 28 -50 c22 -41 32 -50 54 -50 l27 0 -42 78 c-23 42
-69 129 -103 192 -52 96 -66 116 -88 118 -24 3 -31 -9 -121 -187z m196 -3 l29
-58 -100 0 c-55 0 -100 2 -100 5 0 3 21 47 47 99 l47 95 24 -42 c13 -23 37
-68 53 -99z"/>
<path d="M5550 2075 l0 -195 25 0 25 0 0 150 c0 83 3 150 8 149 4 0 42 -49 85
-110 51 -71 84 -109 96 -109 12 0 46 38 97 110 44 60 82 109 87 110 4 0 7 -67
7 -150 0 -143 1 -150 20 -150 19 0 20 7 20 185 0 102 1 188 3 193 1 4 -9 8
-23 10 -22 2 -37 -15 -115 -123 -49 -69 -92 -125 -96 -125 -3 0 -39 46 -79
103 -95 132 -109 147 -137 147 l-23 0 0 -195z"/>
<path d="M6560 2076 l0 -196 25 0 25 0 -2 193 c-3 191 -3 192 -25 195 l-23 3
0 -195z"/>
</g>
</svg>
